<svg xmlns="http://www.w3.org/2000/svg" viewBox="0 0 200 200" fill="none">
  <!-- Background -->
  <rect width="200" height="200" rx="24" fill="#EEF2FF"/>
  
  <!-- Dumbbell -->
  <g transform="translate(50, 50)">
    <!-- Bar -->
    <rect x="25" y="42" width="50" height="8" rx="4" fill="#818CF8"/>
    <!-- Left weight plates -->
    <rect x="8" y="28" width="20" height="36" rx="5" fill="#4F46E5"/>
    <rect x="0" y="33" width="12" height="26" rx="4" fill="#4338CA"/>
    <!-- Right weight plates -->
    <rect x="72" y="28" width="20" height="36" rx="5" fill="#4F46E5"/>
    <rect x="88" y="33" width="12" height="26" rx="4" fill="#4338CA"/>
  </g>
  
  <!-- Timer display -->
  <g transform="translate(55, 115)">
    <rect x="0" y="0" width="90" height="40" rx="10" fill="white" stroke="#C7D2FE" stroke-width="2"/>
    <text x="45" y="27" text-anchor="middle" font-size="18" fill="#4F46E5" font-family="system-ui" font-weight="700">0:45</text>
  </g>
  
  <!-- Rep counter -->
  <g transform="translate(60, 160)">
    <rect x="0" y="0" width="80" height="25" rx="12.5" fill="#E0E7FF"/>
    <text x="40" y="17" text-anchor="middle" font-size="11" fill="#4F46E5" font-family="system-ui" font-weight="600">12 reps</text>
  </g>
  
  <!-- Pulse rings -->
  <circle cx="100" cy="70" r="55" stroke="#C7D2FE" stroke-width="1" fill="none" opacity="0.5"/>
  <circle cx="100" cy="70" r="65" stroke="#E0E7FF" stroke-width="1" fill="none" opacity="0.3"/>
  
  <!-- Decorative -->
  <circle cx="25" cy="170" r="4" fill="#A5B4FC" opacity="0.5"/>
  <circle cx="178" cy="40" r="5" fill="#C7D2FE" opacity="0.6"/>
  <circle cx="170" cy="170" r="3" fill="#A5B4FC" opacity="0.4"/>
</svg>
