<svg xmlns="http://www.w3.org/2000/svg" viewBox="0 0 800 400" fill="none">
  <!-- Background gradient circles -->
  <circle cx="400" cy="200" r="180" fill="url(#heroGrad1)" opacity="0.15"/>
  <circle cx="300" cy="250" r="120" fill="url(#heroGrad2)" opacity="0.1"/>
  <circle cx="520" cy="150" r="100" fill="url(#heroGrad3)" opacity="0.12"/>

  <!-- Dumbbell -->
  <g transform="translate(320, 120)">
    <!-- Bar -->
    <rect x="30" y="55" width="100" height="10" rx="5" fill="#f59e0b"/>
    <!-- Left weight -->
    <rect x="10" y="35" width="25" height="50" rx="6" fill="#d97706"/>
    <rect x="0" y="42" width="15" height="36" rx="4" fill="#b45309"/>
    <!-- Right weight -->
    <rect x="125" y="35" width="25" height="50" rx="6" fill="#d97706"/>
    <rect x="145" y="42" width="15" height="36" rx="4" fill="#b45309"/>
  </g>

  <!-- Timer/stopwatch -->
  <g transform="translate(200, 100)">
    <circle cx="40" cy="50" r="35" stroke="#f59e0b" stroke-width="4" fill="#141414"/>
    <circle cx="40" cy="50" r="28" stroke="#262626" stroke-width="2" fill="none"/>
    <line x1="40" y1="50" x2="40" y2="30" stroke="#d97706" stroke-width="3" stroke-linecap="round"/>
    <line x1="40" y1="50" x2="55" y2="50" stroke="#fbbf24" stroke-width="2" stroke-linecap="round"/>
    <rect x="35" y="10" width="10" height="8" rx="2" fill="#f59e0b"/>
    <circle cx="40" cy="50" r="3" fill="#d97706"/>
  </g>

  <!-- Checklist -->
  <g transform="translate(530, 90)">
    <rect x="0" y="0" width="80" height="100" rx="10" fill="#141414" stroke="#2a2a2a" stroke-width="2"/>
    <rect x="12" y="15" width="14" height="14" rx="3" fill="#262626" stroke="#f59e0b" stroke-width="1.5"/>
    <path d="M16 22l3 3 5-6" stroke="#d97706" stroke-width="2" fill="none" stroke-linecap="round" stroke-linejoin="round"/>
    <rect x="34" y="18" width="34" height="6" rx="3" fill="#2a2a2a"/>
    <rect x="12" y="40" width="14" height="14" rx="3" fill="#262626" stroke="#f59e0b" stroke-width="1.5"/>
    <path d="M16 47l3 3 5-6" stroke="#d97706" stroke-width="2" fill="none" stroke-linecap="round" stroke-linejoin="round"/>
    <rect x="34" y="43" width="28" height="6" rx="3" fill="#2a2a2a"/>
    <rect x="12" y="65" width="14" height="14" rx="3" fill="#1f1f1f" stroke="#2a2a2a" stroke-width="1.5"/>
    <rect x="34" y="68" width="32" height="6" rx="3" fill="#2a2a2a"/>
  </g>

  <!-- Play button -->
  <g transform="translate(460, 220)">
    <circle cx="30" cy="30" r="28" fill="#d97706" opacity="0.9"/>
    <circle cx="30" cy="30" r="28" fill="url(#playGrad)" opacity="0.4"/>
    <polygon points="24,18 24,42 42,30" fill="white"/>
  </g>

  <!-- Floating dots decoration -->
  <circle cx="150" cy="80" r="4" fill="#fde68a" opacity="0.6"/>
  <circle cx="650" cy="100" r="6" fill="#fde68a" opacity="0.5"/>
  <circle cx="700" cy="300" r="5" fill="#fcd34d" opacity="0.4"/>
  <circle cx="100" cy="300" r="3" fill="#fcd34d" opacity="0.5"/>
  <circle cx="250" cy="350" r="4" fill="#fde68a" opacity="0.6"/>
  <circle cx="580" cy="340" r="5" fill="#fde68a" opacity="0.4"/>

  <!-- Person stretching (simplified) -->
  <g transform="translate(130, 200)">
    <circle cx="30" cy="10" r="10" fill="#fbbf24"/>
    <path d="M30 20 L30 50 M15 35 L45 30 M30 50 L18 75 M30 50 L42 75" stroke="#f59e0b" stroke-width="4" stroke-linecap="round" stroke-linejoin="round" fill="none"/>
  </g>

  <!-- Person doing squats (simplified) -->
  <g transform="translate(600, 180)">
    <circle cx="30" cy="10" r="10" fill="#fbbf24"/>
    <path d="M30 20 L30 45 M18 32 L42 32 M30 45 L20 60 L15 75 M30 45 L40 60 L45 75" stroke="#f59e0b" stroke-width="4" stroke-linecap="round" stroke-linejoin="round" fill="none"/>
  </g>

  <!-- Gradients -->
  <defs>
    <radialGradient id="heroGrad1">
      <stop offset="0%" stop-color="#f59e0b"/>
      <stop offset="100%" stop-color="#fbbf24"/>
    </radialGradient>
    <radialGradient id="heroGrad2">
      <stop offset="0%" stop-color="#fcd34d"/>
      <stop offset="100%" stop-color="#fde68a"/>
    </radialGradient>
    <radialGradient id="heroGrad3">
      <stop offset="0%" stop-color="#fbbf24"/>
      <stop offset="100%" stop-color="#262626"/>
    </radialGradient>
    <linearGradient id="playGrad" x1="0" y1="0" x2="1" y2="1">
      <stop offset="0%" stop-color="#fbbf24"/>
      <stop offset="100%" stop-color="#d97706"/>
    </linearGradient>
  </defs>
</svg>
