<svg xmlns="http://www.w3.org/2000/svg" viewBox="0 0 800 400" fill="none">
  <!-- Background gradient circles -->
  <circle cx="400" cy="200" r="180" fill="url(#heroGrad1)" opacity="0.15"/>
  <circle cx="300" cy="250" r="120" fill="url(#heroGrad2)" opacity="0.1"/>
  <circle cx="520" cy="150" r="100" fill="url(#heroGrad3)" opacity="0.12"/>

  <!-- Dumbbell -->
  <g transform="translate(320, 120)">
    <!-- Bar -->
    <rect x="30" y="55" width="100" height="10" rx="5" fill="#6366F1"/>
    <!-- Left weight -->
    <rect x="10" y="35" width="25" height="50" rx="6" fill="#4F46E5"/>
    <rect x="0" y="42" width="15" height="36" rx="4" fill="#4338CA"/>
    <!-- Right weight -->
    <rect x="125" y="35" width="25" height="50" rx="6" fill="#4F46E5"/>
    <rect x="145" y="42" width="15" height="36" rx="4" fill="#4338CA"/>
  </g>

  <!-- Timer/stopwatch -->
  <g transform="translate(200, 100)">
    <circle cx="40" cy="50" r="35" stroke="#6366F1" stroke-width="4" fill="white"/>
    <circle cx="40" cy="50" r="28" stroke="#E0E7FF" stroke-width="2" fill="none"/>
    <line x1="40" y1="50" x2="40" y2="30" stroke="#4F46E5" stroke-width="3" stroke-linecap="round"/>
    <line x1="40" y1="50" x2="55" y2="50" stroke="#818CF8" stroke-width="2" stroke-linecap="round"/>
    <rect x="35" y="10" width="10" height="8" rx="2" fill="#6366F1"/>
    <circle cx="40" cy="50" r="3" fill="#4F46E5"/>
  </g>

  <!-- Checklist -->
  <g transform="translate(530, 90)">
    <rect x="0" y="0" width="80" height="100" rx="10" fill="white" stroke="#E2E8F0" stroke-width="2"/>
    <rect x="12" y="15" width="14" height="14" rx="3" fill="#E0E7FF" stroke="#6366F1" stroke-width="1.5"/>
    <path d="M16 22l3 3 5-6" stroke="#4F46E5" stroke-width="2" fill="none" stroke-linecap="round" stroke-linejoin="round"/>
    <rect x="34" y="18" width="34" height="6" rx="3" fill="#E2E8F0"/>
    <rect x="12" y="40" width="14" height="14" rx="3" fill="#E0E7FF" stroke="#6366F1" stroke-width="1.5"/>
    <path d="M16 47l3 3 5-6" stroke="#4F46E5" stroke-width="2" fill="none" stroke-linecap="round" stroke-linejoin="round"/>
    <rect x="34" y="43" width="28" height="6" rx="3" fill="#E2E8F0"/>
    <rect x="12" y="65" width="14" height="14" rx="3" fill="#F1F5F9" stroke="#CBD5E1" stroke-width="1.5"/>
    <rect x="34" y="68" width="32" height="6" rx="3" fill="#E2E8F0"/>
  </g>

  <!-- Play button -->
  <g transform="translate(460, 220)">
    <circle cx="30" cy="30" r="28" fill="#4F46E5" opacity="0.9"/>
    <circle cx="30" cy="30" r="28" fill="url(#playGrad)" opacity="0.4"/>
    <polygon points="24,18 24,42 42,30" fill="white"/>
  </g>

  <!-- Floating dots decoration -->
  <circle cx="150" cy="80" r="4" fill="#C7D2FE" opacity="0.6"/>
  <circle cx="650" cy="100" r="6" fill="#C7D2FE" opacity="0.5"/>
  <circle cx="700" cy="300" r="5" fill="#A5B4FC" opacity="0.4"/>
  <circle cx="100" cy="300" r="3" fill="#A5B4FC" opacity="0.5"/>
  <circle cx="250" cy="350" r="4" fill="#C7D2FE" opacity="0.6"/>
  <circle cx="580" cy="340" r="5" fill="#C7D2FE" opacity="0.4"/>

  <!-- Person stretching (simplified) -->
  <g transform="translate(130, 200)">
    <circle cx="30" cy="10" r="10" fill="#818CF8"/>
    <path d="M30 20 L30 50 M15 35 L45 30 M30 50 L18 75 M30 50 L42 75" stroke="#6366F1" stroke-width="4" stroke-linecap="round" stroke-linejoin="round" fill="none"/>
  </g>

  <!-- Person doing squats (simplified) -->
  <g transform="translate(600, 180)">
    <circle cx="30" cy="10" r="10" fill="#818CF8"/>
    <path d="M30 20 L30 45 M18 32 L42 32 M30 45 L20 60 L15 75 M30 45 L40 60 L45 75" stroke="#6366F1" stroke-width="4" stroke-linecap="round" stroke-linejoin="round" fill="none"/>
  </g>

  <!-- Gradients -->
  <defs>
    <radialGradient id="heroGrad1">
      <stop offset="0%" stop-color="#6366F1"/>
      <stop offset="100%" stop-color="#818CF8"/>
    </radialGradient>
    <radialGradient id="heroGrad2">
      <stop offset="0%" stop-color="#A5B4FC"/>
      <stop offset="100%" stop-color="#C7D2FE"/>
    </radialGradient>
    <radialGradient id="heroGrad3">
      <stop offset="0%" stop-color="#818CF8"/>
      <stop offset="100%" stop-color="#E0E7FF"/>
    </radialGradient>
    <linearGradient id="playGrad" x1="0" y1="0" x2="1" y2="1">
      <stop offset="0%" stop-color="#818CF8"/>
      <stop offset="100%" stop-color="#4F46E5"/>
    </linearGradient>
  </defs>
</svg>
