<svg xmlns="http://www.w3.org/2000/svg" viewBox="0 0 1200 400" fill="none">
  <circle cx="600" cy="200" r="220" fill="url(#heroGrad1)" opacity="0.15"/>
  <circle cx="350" cy="250" r="140" fill="url(#heroGrad2)" opacity="0.1"/>
  <circle cx="850" cy="150" r="130" fill="url(#heroGrad3)" opacity="0.12"/>

  <g transform="translate(100, 180)">
    <circle cx="30" cy="10" r="12" fill="#fbbf24"/>
    <path d="M30 22 L30 55 M12 38 L48 32 M30 55 L16 82 M30 55 L44 82" stroke="#f59e0b" stroke-width="4" stroke-linecap="round" stroke-linejoin="round" fill="none"/>
  </g>

  <g transform="translate(280, 90)">
    <circle cx="45" cy="55" r="40" stroke="#f59e0b" stroke-width="4" fill="#141414"/>
    <circle cx="45" cy="55" r="32" stroke="#262626" stroke-width="2" fill="none"/>
    <line x1="45" y1="55" x2="45" y2="32" stroke="#d97706" stroke-width="3" stroke-linecap="round"/>
    <line x1="45" y1="55" x2="62" y2="55" stroke="#fbbf24" stroke-width="2" stroke-linecap="round"/>
    <rect x="39" y="10" width="12" height="9" rx="2" fill="#f59e0b"/>
    <circle cx="45" cy="55" r="3" fill="#d97706"/>
  </g>

  <g transform="translate(500, 120)">
    <rect x="35" y="55" width="130" height="12" rx="6" fill="#f59e0b"/>
    <rect x="12" y="32" width="28" height="56" rx="7" fill="#d97706"/>
    <rect x="0" y="40" width="18" height="40" rx="5" fill="#b45309"/>
    <rect x="160" y="32" width="28" height="56" rx="7" fill="#d97706"/>
    <rect x="182" y="40" width="18" height="40" rx="5" fill="#b45309"/>
  </g>

  <g transform="translate(730, 210)">
    <circle cx="35" cy="35" r="32" fill="#d97706" opacity="0.9"/>
    <circle cx="35" cy="35" r="32" fill="url(#playGrad)" opacity="0.4"/>
    <polygon points="28,20 28,50 50,35" fill="white"/>
  </g>

  <g transform="translate(870, 80)">
    <rect x="0" y="0" width="90" height="110" rx="10" fill="#141414" stroke="#2a2a2a" stroke-width="2"/>
    <rect x="14" y="16" width="15" height="15" rx="3" fill="#262626" stroke="#f59e0b" stroke-width="1.5"/>
    <path d="M18 24l3 3 5-6" stroke="#d97706" stroke-width="2" fill="none" stroke-linecap="round" stroke-linejoin="round"/>
    <rect x="38" y="20" width="38" height="6" rx="3" fill="#2a2a2a"/>
    <rect x="14" y="44" width="15" height="15" rx="3" fill="#262626" stroke="#f59e0b" stroke-width="1.5"/>
    <path d="M18 52l3 3 5-6" stroke="#d97706" stroke-width="2" fill="none" stroke-linecap="round" stroke-linejoin="round"/>
    <rect x="38" y="48" width="30" height="6" rx="3" fill="#2a2a2a"/>
    <rect x="14" y="72" width="15" height="15" rx="3" fill="#1f1f1f" stroke="#2a2a2a" stroke-width="1.5"/>
    <rect x="38" y="76" width="34" height="6" rx="3" fill="#2a2a2a"/>
  </g>

  <g transform="translate(1020, 170)">
    <circle cx="30" cy="10" r="12" fill="#fbbf24"/>
    <path d="M30 22 L30 48 M16 35 L44 35 M30 48 L18 65 L13 82 M30 48 L42 65 L47 82" stroke="#f59e0b" stroke-width="4" stroke-linecap="round" stroke-linejoin="round" fill="none"/>
  </g>

  <circle cx="60" cy="70" r="5" fill="#fde68a" opacity="0.6"/>
  <circle cx="180" cy="100" r="4" fill="#fde68a" opacity="0.5"/>
  <circle cx="450" cy="60" r="6" fill="#fde68a" opacity="0.5"/>
  <circle cx="750" cy="80" r="5" fill="#fcd34d" opacity="0.4"/>
  <circle cx="1000" cy="100" r="6" fill="#fde68a" opacity="0.5"/>
  <circle cx="1140" cy="280" r="5" fill="#fcd34d" opacity="0.4"/>
  <circle cx="60" cy="320" r="4" fill="#fcd34d" opacity="0.5"/>
  <circle cx="300" cy="350" r="5" fill="#fde68a" opacity="0.6"/>
  <circle cx="600" cy="360" r="4" fill="#fde68a" opacity="0.4"/>
  <circle cx="900" cy="340" r="5" fill="#fde68a" opacity="0.4"/>
  <circle cx="1150" cy="120" r="4" fill="#fde68a" opacity="0.5"/>

  <defs>
    <radialGradient id="heroGrad1">
      <stop offset="0%" stop-color="#f59e0b"/>
      <stop offset="100%" stop-color="#fbbf24"/>
    </radialGradient>
    <radialGradient id="heroGrad2">
      <stop offset="0%" stop-color="#fcd34d"/>
      <stop offset="100%" stop-color="#fde68a"/>
    </radialGradient>
    <radialGradient id="heroGrad3">
      <stop offset="0%" stop-color="#fbbf24"/>
      <stop offset="100%" stop-color="#262626"/>
    </radialGradient>
    <linearGradient id="playGrad" x1="0" y1="0" x2="1" y2="1">
      <stop offset="0%" stop-color="#fbbf24"/>
      <stop offset="100%" stop-color="#d97706"/>
    </linearGradient>
  </defs>
</svg>