<svg xmlns="http://www.w3.org/2000/svg" viewBox="0 0 200 200" fill="none">
  <!-- Background -->
  <rect width="200" height="200" rx="24" fill="#1c1c1c"/>
  
  <!-- Calendar body -->
  <rect x="35" y="50" width="130" height="110" rx="12" fill="#141414" stroke="#fde68a" stroke-width="2"/>
  
  <!-- Calendar header -->
  <rect x="35" y="50" width="130" height="30" rx="12" fill="#f59e0b"/>
  <rect x="35" y="68" width="130" height="14" fill="#f59e0b"/>
  
  <!-- Day labels -->
  <text x="52" y="68" font-size="8" fill="white" font-family="system-ui" font-weight="600">L</text>
  <text x="70" y="68" font-size="8" fill="white" font-family="system-ui" font-weight="600">M</text>
  <text x="87" y="68" font-size="8" fill="white" font-family="system-ui" font-weight="600">M</text>
  <text x="104" y="68" font-size="8" fill="white" font-family="system-ui" font-weight="600">J</text>
  <text x="122" y="68" font-size="8" fill="white" font-family="system-ui" font-weight="600">V</text>
  <text x="139" y="68" font-size="8" fill="white" font-family="system-ui" font-weight="600">S</text>
  <text x="155" y="68" font-size="8" fill="white" font-family="system-ui" font-weight="600">D</text>
  
  <!-- Grid cells with workout indicators -->
  <rect x="45" y="90" width="16" height="16" rx="4" fill="#262626"/>
  <rect x="63" y="90" width="16" height="16" rx="4" fill="#fde68a"/>
  <rect x="81" y="90" width="16" height="16" rx="4" fill="#262626"/>
  <rect x="99" y="90" width="16" height="16" rx="4" fill="#d97706"/>
  <rect x="117" y="90" width="16" height="16" rx="4" fill="#262626"/>
  <rect x="135" y="90" width="16" height="16" rx="4" fill="#fde68a"/>
  
  <rect x="45" y="112" width="16" height="16" rx="4" fill="#fde68a"/>
  <rect x="63" y="112" width="16" height="16" rx="4" fill="#262626"/>
  <rect x="81" y="112" width="16" height="16" rx="4" fill="#d97706"/>
  <rect x="99" y="112" width="16" height="16" rx="4" fill="#262626"/>
  <rect x="117" y="112" width="16" height="16" rx="4" fill="#262626"/>
  <rect x="135" y="112" width="16" height="16" rx="4" fill="#d97706"/>

  <rect x="45" y="134" width="16" height="16" rx="4" fill="#262626"/>
  <rect x="63" y="134" width="16" height="16" rx="4" fill="#d97706"/>
  <rect x="81" y="134" width="16" height="16" rx="4" fill="#262626"/>
  <rect x="99" y="134" width="16" height="16" rx="4" fill="#fde68a"/>
  <rect x="117" y="134" width="16" height="16" rx="4" fill="#d97706"/>
  <rect x="135" y="134" width="16" height="16" rx="4" fill="#262626"/>
  
  <!-- Checkmarks on active days -->
  <path d="M103 95l3 3 5-5" stroke="white" stroke-width="2" fill="none" stroke-linecap="round" stroke-linejoin="round"/>
  <path d="M85 117l3 3 5-5" stroke="white" stroke-width="2" fill="none" stroke-linecap="round" stroke-linejoin="round"/>
  <path d="M139 117l3 3 5-5" stroke="white" stroke-width="2" fill="none" stroke-linecap="round" stroke-linejoin="round"/>
  <path d="M67 139l3 3 5-5" stroke="white" stroke-width="2" fill="none" stroke-linecap="round" stroke-linejoin="round"/>
  <path d="M121 139l3 3 5-5" stroke="white" stroke-width="2" fill="none" stroke-linecap="round" stroke-linejoin="round"/>
  
  <!-- Decorative dots -->
  <circle cx="25" cy="170" r="4" fill="#fcd34d" opacity="0.5"/>
  <circle cx="175" cy="40" r="5" fill="#fde68a" opacity="0.6"/>
  <circle cx="170" cy="175" r="3" fill="#fcd34d" opacity="0.4"/>
</svg>
