<svg xmlns="http://www.w3.org/2000/svg" viewBox="0 0 200 200" fill="none">
  <!-- Background -->
  <rect width="200" height="200" rx="24" fill="#EEF2FF"/>
  
  <!-- Main play circle -->
  <circle cx="100" cy="95" r="50" fill="white" stroke="#C7D2FE" stroke-width="2"/>
  <circle cx="100" cy="95" r="42" fill="#EEF2FF" stroke="#E0E7FF" stroke-width="1"/>
  
  <!-- Progress arc -->
  <path d="M100 53 A42 42 0 1 1 65 120" stroke="#4F46E5" stroke-width="4" fill="none" stroke-linecap="round"/>
  
  <!-- Play triangle -->
  <polygon points="90,75 90,115 120,95" fill="#4F46E5"/>
  
  <!-- Timeline bar at bottom -->
  <rect x="30" y="160" width="140" height="8" rx="4" fill="#E0E7FF"/>
  <rect x="30" y="160" width="90" height="8" rx="4" fill="#6366F1"/>
  
  <!-- Step indicators -->
  <circle cx="50" cy="180" r="6" fill="#4F46E5"/>
  <circle cx="75" cy="180" r="6" fill="#4F46E5"/>
  <circle cx="100" cy="180" r="6" fill="#818CF8"/>
  <circle cx="125" cy="180" r="6" fill="#E0E7FF" stroke="#C7D2FE" stroke-width="1.5"/>
  <circle cx="150" cy="180" r="6" fill="#E0E7FF" stroke="#C7D2FE" stroke-width="1.5"/>
  
  <!-- Dots in completed steps -->
  <circle cx="50" cy="180" r="2" fill="white"/>
  <circle cx="75" cy="180" r="2" fill="white"/>
  
  <!-- Decorative elements -->
  <circle cx="30" cy="40" r="4" fill="#A5B4FC" opacity="0.5"/>
  <circle cx="170" cy="50" r="5" fill="#C7D2FE" opacity="0.6"/>
  <circle cx="25" cy="140" r="3" fill="#C7D2FE" opacity="0.4"/>
</svg>
