<svg xmlns="http://www.w3.org/2000/svg" viewBox="0 0 200 200" fill="none">
  <!-- Background -->
  <rect width="200" height="200" rx="24" fill="#1c1c1c"/>
  
  <!-- Stacked cards representing sets -->
  <!-- Card 3 (back) -->
  <rect x="50" y="35" width="110" height="70" rx="10" fill="#fde68a" opacity="0.5"/>
  
  <!-- Card 2 (middle) -->
  <rect x="42" y="45" width="110" height="70" rx="10" fill="#262626" stroke="#fde68a" stroke-width="1"/>
  
  <!-- Card 1 (front) -->
  <rect x="34" y="55" width="110" height="70" rx="10" fill="#141414" stroke="#fde68a" stroke-width="2"/>
  
  <!-- Card content - exercise list -->
  <rect x="48" y="68" width="8" height="8" rx="2" fill="#d97706"/>
  <rect x="62" y="70" width="50" height="4" rx="2" fill="#2a2a2a"/>
  <rect x="48" y="82" width="8" height="8" rx="2" fill="#fbbf24"/>
  <rect x="62" y="84" width="40" height="4" rx="2" fill="#2a2a2a"/>
  <rect x="48" y="96" width="8" height="8" rx="2" fill="#fcd34d"/>
  <rect x="62" y="98" width="45" height="4" rx="2" fill="#2a2a2a"/>
  
  <!-- Rounds indicator -->
  <g transform="translate(55, 140)">
    <rect x="0" y="0" width="90" height="30" rx="15" fill="#d97706"/>
    <text x="45" y="20" text-anchor="middle" font-size="12" fill="white" font-family="system-ui" font-weight="600">3 rondas</text>
  </g>
  
  <!-- Circular arrows (repeat) -->
  <g transform="translate(145, 75)">
    <path d="M10 0 A10 10 0 1 1 0 10" stroke="#f59e0b" stroke-width="2.5" fill="none" stroke-linecap="round"/>
    <polygon points="10,-4 10,4 16,0" fill="#f59e0b"/>
  </g>
  
  <!-- Decorative -->
  <circle cx="24" cy="165" r="4" fill="#fcd34d" opacity="0.5"/>
  <circle cx="175" cy="35" r="5" fill="#fde68a" opacity="0.6"/>
  <circle cx="170" cy="170" r="3" fill="#fcd34d" opacity="0.4"/>
</svg>
