<svg xmlns="http://www.w3.org/2000/svg" viewBox="0 0 800 120" fill="none">
  <!-- Step 1: Ejercicios -->
  <g transform="translate(20, 15)">
    <rect x="0" y="0" width="150" height="90" rx="16" fill="white" stroke="#C7D2FE" stroke-width="2"/>
    <rect x="15" y="15" width="18" height="18" rx="4" fill="#4F46E5"/>
    <rect x="40" y="18" width="55" height="5" rx="2.5" fill="#E2E8F0"/>
    <rect x="40" y="27" width="40" height="4" rx="2" fill="#F1F5F9"/>
    <rect x="15" y="42" width="18" height="18" rx="4" fill="#818CF8"/>
    <rect x="40" y="45" width="50" height="5" rx="2.5" fill="#E2E8F0"/>
    <rect x="40" y="54" width="35" height="4" rx="2" fill="#F1F5F9"/>
    <rect x="15" y="65" width="120" height="4" rx="2" fill="#F1F5F9"/>
    <text x="75" y="-5" text-anchor="middle" font-size="11" fill="#6366F1" font-family="system-ui" font-weight="600">Ejercicios</text>
  </g>
  
  <!-- Arrow 1 -->
  <g transform="translate(185, 50)">
    <line x1="0" y1="10" x2="30" y2="10" stroke="#A5B4FC" stroke-width="2.5" stroke-linecap="round"/>
    <polygon points="28,4 38,10 28,16" fill="#A5B4FC"/>
  </g>
  
  <!-- Step 2: Sets -->
  <g transform="translate(225, 15)">
    <rect x="5" y="-3" width="150" height="90" rx="16" fill="#E0E7FF" opacity="0.5"/>
    <rect x="0" y="0" width="150" height="90" rx="16" fill="white" stroke="#C7D2FE" stroke-width="2"/>
    <rect x="15" y="20" width="10" height="10" rx="3" fill="#4F46E5"/>
    <rect x="30" y="22" width="45" height="5" rx="2.5" fill="#E2E8F0"/>
    <rect x="15" y="38" width="10" height="10" rx="3" fill="#818CF8"/>
    <rect x="30" y="40" width="40" height="5" rx="2.5" fill="#E2E8F0"/>
    <rect x="15" y="56" width="10" height="10" rx="3" fill="#A5B4FC"/>
    <rect x="30" y="58" width="50" height="5" rx="2.5" fill="#E2E8F0"/>
    <rect x="90" y="30" width="45" height="22" rx="11" fill="#EEF2FF" stroke="#C7D2FE" stroke-width="1"/>
    <text x="112" y="45" text-anchor="middle" font-size="9" fill="#6366F1" font-family="system-ui" font-weight="600">×3</text>
    <text x="75" y="-8" text-anchor="middle" font-size="11" fill="#6366F1" font-family="system-ui" font-weight="600">Sets</text>
  </g>
  
  <!-- Arrow 2 -->
  <g transform="translate(390, 50)">
    <line x1="0" y1="10" x2="30" y2="10" stroke="#A5B4FC" stroke-width="2.5" stroke-linecap="round"/>
    <polygon points="28,4 38,10 28,16" fill="#A5B4FC"/>
  </g>
  
  <!-- Step 3: Rutinas -->
  <g transform="translate(430, 15)">
    <rect x="0" y="0" width="150" height="90" rx="16" fill="white" stroke="#C7D2FE" stroke-width="2"/>
    <rect x="15" y="15" width="120" height="18" rx="6" fill="#EEF2FF" stroke="#E0E7FF" stroke-width="1"/>
    <text x="75" y="28" text-anchor="middle" font-size="9" fill="#6366F1" font-family="system-ui">Set Calentamiento</text>
    <rect x="15" y="38" width="120" height="18" rx="6" fill="#EEF2FF" stroke="#E0E7FF" stroke-width="1"/>
    <text x="75" y="51" text-anchor="middle" font-size="9" fill="#6366F1" font-family="system-ui">Set Principal</text>
    <rect x="15" y="61" width="120" height="18" rx="6" fill="#EEF2FF" stroke="#E0E7FF" stroke-width="1"/>
    <text x="75" y="74" text-anchor="middle" font-size="9" fill="#6366F1" font-family="system-ui">Set Enfriamiento</text>
    <text x="75" y="-5" text-anchor="middle" font-size="11" fill="#6366F1" font-family="system-ui" font-weight="600">Rutinas</text>
  </g>
  
  <!-- Arrow 3 -->
  <g transform="translate(595, 50)">
    <line x1="0" y1="10" x2="30" y2="10" stroke="#A5B4FC" stroke-width="2.5" stroke-linecap="round"/>
    <polygon points="28,4 38,10 28,16" fill="#A5B4FC"/>
  </g>
  
  <!-- Step 4: Planes -->
  <g transform="translate(635, 15)">
    <rect x="0" y="0" width="150" height="90" rx="16" fill="white" stroke="#C7D2FE" stroke-width="2"/>
    <!-- Mini calendar -->
    <rect x="12" y="12" width="126" height="14" rx="4" fill="#4F46E5"/>
    <g font-size="7" fill="white" font-family="system-ui" font-weight="500">
      <text x="26" y="22">L</text>
      <text x="44" y="22">M</text>
      <text x="62" y="22">M</text>
      <text x="79" y="22">J</text>
      <text x="97" y="22">V</text>
      <text x="114" y="22">S</text>
      <text x="127" y="22">D</text>
    </g>
    <rect x="18" y="32" width="14" height="14" rx="3" fill="#E0E7FF"/>
    <rect x="36" y="32" width="14" height="14" rx="3" fill="#4F46E5"/>
    <rect x="54" y="32" width="14" height="14" rx="3" fill="#E0E7FF"/>
    <rect x="72" y="32" width="14" height="14" rx="3" fill="#4F46E5"/>
    <rect x="90" y="32" width="14" height="14" rx="3" fill="#E0E7FF"/>
    <rect x="108" y="32" width="14" height="14" rx="3" fill="#4F46E5"/>
    <rect x="18" y="52" width="14" height="14" rx="3" fill="#4F46E5"/>
    <rect x="36" y="52" width="14" height="14" rx="3" fill="#E0E7FF"/>
    <rect x="54" y="52" width="14" height="14" rx="3" fill="#4F46E5"/>
    <rect x="72" y="52" width="14" height="14" rx="3" fill="#E0E7FF"/>
    <rect x="90" y="52" width="14" height="14" rx="3" fill="#E0E7FF"/>
    <rect x="108" y="52" width="14" height="14" rx="3" fill="#C7D2FE"/>
    <text x="75" y="-5" text-anchor="middle" font-size="11" fill="#6366F1" font-family="system-ui" font-weight="600">Planes</text>
  </g>
</svg>
